# xmcd
# 
# Track frame offsets:
#     150
#     20755
#     44029
#     69008
#     87922
#     114145
#     149841
#     172234
#     192478
#     213393
#     233419
#     259819
#     277837
#     298227
#     312318
# 
# Disc length: 4423
# 
# Revision: 0
# Processed by: cddbd v1.5.2PL0 Copyright (c) Steve Scherf et al.
# Submitted via: fre:ac v1.0.27
# 
DISCID=e511450f
DTITLE=Joe Jencks - Poets, Philosophers, Workers and Wanderers
DYEAR=2017
DGENRE=Folk
TTITLE0=Let Me Sing You A Song
TTITLE1=Let It Rain
TTITLE2=The Lady Julianna
TTITLE3=Best of Friends
TTITLE4=Going Home
TTITLE5=Wheelbarrow Johnny
TTITLE6=One Piece At A Time
TTITLE7=Children of Trochenbrod
TTITLE8=Longest Night of The Year
TTITLE9=Solidarity Forever
TTITLE10=Hands
TTITLE11=Alice Anne
TTITLE12=Given Myself To Love
TTITLE13=Mercy
TTITLE14=Everybody Sings The Blues
EXTD=
EXTT0=
EXTT1=
EXTT2=
EXTT3=
EXTT4=
EXTT5=
EXTT6=
EXTT7=
EXTT8=
EXTT9=
EXTT10=
EXTT11=
EXTT12=
EXTT13=
EXTT14=
PLAYORDER=
